<svg id="Layer_1" data-name="Layer 1" xmlns="http://www.w3.org/2000/svg" viewBox="0 0 150 150">
  <path fill="currentColor"
    d="m32.6 0 18.3 17.4v17.4H40.8l-18-18V0zM118.1 0 99.8 17.4v17.4h10.1l18-18V0zM32.6 150l18.3-17.4v-17.4H40.8l-18 18V150zM118.1 150l-18.3-17.4v-17.4h10.1l18 18V150zM60.6 22.4v12.4h11.6v-5.4l-6.7-7zM90.1 22.4v12.4H78.5v-5.4l6.7-7zM60.6 127.6v-12.4h11.6v5.4l-6.7 7zM90.1 127.6v-12.4H78.5v5.4l6.7 7zM60.6 53.6h29.5v12l-14.7 9.3-14.8-9.3zM60.6 96.2h29.5V84.3l-14.7-9.4-14.8 9.4z" />
</svg>