<svg width="24px" height="24px" id="Layer_1" data-name="Layer 1" xmlns="http://www.w3.org/2000/svg"
  viewBox="0 0 300 300">
  <path fill="currentColor"
    d="M94.2 0v44.2h30.7V25.3L99.4 0zM205.8 0v44.2h-30.7V25.3L200.6 0zM124.9 108.2V64H94.2v18.9l25.5 25.3zM175.1 108.2V64h30.7v18.9l-25.5 25.3zM125 192.4v44.2H94.3v-18.9l25.5-25.3zM175.2 192.4v44.2h30.6v-18.9l-25.4-25.3zM94.2 300v-44.2h30.6v18.9L99.4 300zM205.7 300v-44.2H175v18.9l25.5 25.3zM134.8 128.9h30.4v12.7l-14.8 8.5-15.6-8.5zM134.8 171.2h30.4v-12.7l-14.8-8.4-15.6 8.4z" />
</svg>